# xmcd CD database file
#
# Track frame offsets:
#	150
#	13065
#	24410
#	38107
#	52790
#	63287
#	77222
#	91335
#	105075
#	118197
#
# Disc length: 1764 seconds
#
# Revision: 0
# Processed by: cddbd v1.5.2PL0 Copyright (c) Steve Scherf et al.
# Submitted via: CDex 1.51
#
DISCID=6d06e20a
DTITLE=Count Basie - Basie's Boogie
DYEAR=1900
DGENRE=Jazz
TTITLE0=Taxi War Dance
TTITLE1=Red Bank Boogie
TTITLE2=Rock-A-Bye Basie
TTITLE3=Lester Leaps In
TTITLE4=Moten Swing
TTITLE5=One O'Clock Jump
TTITLE6=Jumpin' At The Woodside
TTITLE7=If I Could Be (One Hour Tonight)
TTITLE8=Blue Skies
TTITLE9=Jump For Me
EXTD=
EXTT0=
EXTT1=
EXTT2=
EXTT3=
EXTT4=
EXTT5=
EXTT6=
EXTT7=
EXTT8=
EXTT9=
PLAYORDER=
